# xmcd
# Track frame offsets:
# 150
# 18500
# 35955
# 50915
# 64012
# 85697
# 100532
# 122827
# 138132
# 150490
# 167107
# 182885
# 194275
# 211257
# 228587
# 242175
# 252622
# 275065
#
# Disc length: 3884 seconds
# Revision: 0
# Processed by: cddbd v1.4PL0 Copyright (c) Steve Scherf et al.
# Submitted via: VisiTrax 2.9.5.181 - For more info visit www.synapsa.com
#
DISCID=070f2a12
DTITLE=Big Bill Broonzy - An Evening With Big Bill Broonzy, Vol. 2
DYEAR=1956
DGENRE=Blues
TTITLE0=I'm Going Down The Road
TTITLE1=This Train
TTITLE2=Bill Bailey Won't You Please Come Home
TTITLE3=A Shanty In Old Shanty Town
TTITLE4=Hey, Bub Blues
TTITLE5=Glory Of Love
TTITLE6=Careless Love
TTITLE7=I Gets The Blues When It Rains
TTITLE8=My name is William Lee Conley Broonzy
TTITLE9=Take This Hammer
TTITLE10=See See Rider
TTITLE11=Diggin' My Potatoes
TTITLE12=Midnight Special
TTITLE13=Keep Your Hands Off Her
TTITLE14=I Got A Girl
TTITLE15=You Better Mind
TTITLE16=I Love You So Much
TTITLE17=Sixteen Tons
EXTD=Storyville,  STCD 8017
EXTT0=
EXTT1=
EXTT2=
EXTT3=
EXTT4=
EXTT5=
EXTT6=
EXTT7=
EXTT8=
EXTT9=
EXTT10=
EXTT11=
EXTT12=
EXTT13=
EXTT14=
EXTT15=
EXTT16=
EXTT17=
PLAYORDER=
